<?xml version="1.0" encoding="utf-8"?>
<!-- Generator: Adobe Illustrator 26.0.2, SVG Export Plug-In . SVG Version: 6.00 Build 0)  -->
<svg version="1.1" id="Layer_1" xmlns="http://www.w3.org/2000/svg" xmlns:xlink="http://www.w3.org/1999/xlink" x="0px" y="0px"
	 viewBox="0 0 463.5 256" style="enable-background:new 0 0 463.5 256;" xml:space="preserve">
<style type="text/css">
	.st0{fill-rule:evenodd;clip-rule:evenodd;fill:#FFFFFF;}
	.st1{fill:#CF1047;}
	.st2{fill:#FFFFFF;}
</style>
<path class="st0" d="M150.6,65.6H140l-13.5,39.1H98.3L133.5,2.4h47.2c17.2,0,37.9,4.7,30.5,26.4c-5.3,15.3-19.8,23.3-34.7,25.1
	l-0.2,0.5c17.9,0.4,18.1,9.6,14.5,25.4c-2.2,8.5-3.4,16.6-3.8,24.8h-30.6c0.9-7.1,2.5-14.4,4.3-21.6C163.8,70.7,165,65.6,150.6,65.6
	z M155,22.3l-8.1,23.5h11c9.1,0,18.2-1.3,21.8-11.8c3.6-10.5-4.7-11.7-13.7-11.7H155z"/>
<path class="st0" d="M24.8,30.1L35.1,2.3l26,0.2h21.1c25,0,38.6,8.1,30,32.9c-8.5,24.8-27.7,32.9-52.7,32.9H40.9l-12.6,36.5H0.1
	L24.8,30.1z M62.2,48.4c11.3-0.4,17.7-5.5,20.3-13c2.6-7.5-0.3-12.6-11.3-13.1H56.7l-9,26.1H62.2z"/>
<path class="st1" d="M386.6,56.7c11.9,1.5,27,4.2,38,12.4c35.6,26.6-8.3,76.2-24.9,87.9c-67,46.7-125,30.5-125,30.5
	c-20.9,35.5,0.2,49.7,24.9,53.5c38.8,6,86-16.9,111.6-37.9c11.4-9.5,28.4-27,36.8-42.7c30.4-57.2,14.2-102.6-44.1-107.3
	C393.4,52.2,379,55.7,386.6,56.7z"/>
<path class="st1" d="M299.8,252.5c-11.9-1.5-27-4.2-38-12.4c-35.6-26.6,8.2-76.2,24.9-87.8c66.9-46.7,125-30.4,125-30.4
	c20.9-35.5-0.2-49.8-24.9-53.5c-38.8-6-86,16.9-111.6,37.9c-11.4,9.5-28.4,26.9-36.8,42.7c-30.4,57.2-14.2,102.7,44.1,107.3
	C293,256.9,307.5,253.5,299.8,252.5z"/>
<path class="st2" d="M261.8,106.2c13.1-11.9,28.6-21.8,42.9-28.7l10.6-30.9h-49l-6.8,19.8h20.7l-6.5,18.9c-4.5,0.9-10,1.7-15.3,1.7
	c-20.3,0-25.8-13.4-18.8-33.5c5.7-16.5,18.3-33.3,37.4-33.3c9.3,0,16,3,14.1,12.8h28.3c9.8-29.7-15-33.4-39.9-32.7
	c-32.1,1-58.4,21.2-69.4,53.2c-11,32.1,1.3,52.4,32.8,53.3C250.7,106.8,256.7,106.6,261.8,106.2z"/>
</svg>
